<?xml version="1.0" standalone="no"?>
<!DOCTYPE svg PUBLIC "-//W3C//DTD SVG 20010904//EN"
 "http://www.w3.org/TR/2001/REC-SVG-20010904/DTD/svg10.dtd">
<svg version="1.0" xmlns="http://www.w3.org/2000/svg"
 width="2048.000000pt" height="1280.000000pt" viewBox="0 0 2048.000000 1280.000000"
 preserveAspectRatio="xMidYMid meet">

<g transform="translate(0.000000,1280.000000) scale(0.100000,-0.100000)"
fill="#000000" stroke="none">
<path d="M10505 12184 c-177 -21 -300 -55 -429 -121 -100 -50 -122 -67 -217
-162 -93 -93 -112 -118 -156 -206 -54 -109 -73 -175 -97 -332 -16 -101 -16
-103 6 -145 50 -95 30 -385 -35 -518 -31 -63 -41 -72 -112 -102 -28 -12 -30
-17 -33 -73 -6 -120 33 -377 68 -450 20 -40 20 -40 0 -55 -29 -22 -74 -186
-60 -218 10 -23 59 -48 160 -82 58 -19 90 -25 395 -65 105 -14 228 -35 275
-45 47 -11 117 -26 155 -34 89 -20 36 -16 -165 12 -177 24 -332 38 -595 53
-145 8 -204 15 -216 25 -8 8 -28 14 -43 14 -41 0 -59 -51 -54 -162 3 -79 1
-88 -15 -88 -31 0 -67 -45 -67 -84 0 -73 41 -130 122 -172 56 -29 187 -67 283
-83 133 -22 250 -44 253 -46 2 -2 -1 -11 -7 -22 -6 -10 -16 -31 -21 -46 -9
-25 -14 -28 -39 -22 -39 8 -98 -17 -112 -49 -10 -20 -9 -30 5 -51 10 -15 16
-29 13 -31 -15 -15 -387 94 -736 217 -247 87 -499 164 -661 203 -189 45 -425
96 -445 96 -11 0 -42 11 -69 25 -91 46 -218 30 -325 -41 -22 -14 -45 -39 -51
-55 -16 -37 -141 -103 -285 -148 -180 -56 -800 -299 -927 -362 -87 -44 -108
-48 -108 -21 0 21 -29 52 -48 52 -16 0 -15 19 3 50 20 35 18 83 -3 110 -11 13
-36 25 -66 31 -27 5 -51 10 -53 12 -8 8 19 502 37 672 21 199 23 220 41 485
11 153 13 166 35 187 26 24 30 53 13 81 -10 15 -5 27 25 67 73 95 82 144 31
167 -23 10 -23 11 -7 44 13 27 22 34 45 34 21 0 43 12 72 39 28 26 56 42 82
46 21 3 48 10 61 16 13 5 33 9 46 9 13 0 29 7 36 15 7 8 22 15 34 15 11 0 70
10 130 22 108 21 146 40 146 72 0 24 -29 46 -60 46 -31 0 -216 -37 -231 -46
-5 -3 -25 1 -45 8 -35 12 -37 12 -63 -20 -15 -17 -35 -32 -45 -32 -43 0 -108
-25 -143 -55 -34 -29 -45 -32 -88 -30 -57 2 -55 -9 -23 128 11 48 17 95 14
103 -3 8 1 29 9 45 9 16 13 33 10 38 -2 5 2 26 11 46 20 48 10 210 -14 238
-20 22 -45 22 -66 -2 -15 -17 -17 -36 -15 -136 3 -81 0 -118 -8 -123 -18 -11
-32 -55 -26 -84 3 -14 -4 -59 -16 -99 -11 -41 -23 -95 -27 -121 l-6 -48 -63 0
-62 0 -7 177 c-7 172 -17 238 -62 390 -18 64 -44 82 -80 58 -31 -20 -31 -37 7
-184 27 -108 29 -125 17 -156 -10 -30 -10 -39 5 -64 13 -22 17 -52 17 -120 0
-101 -1 -103 -68 -105 -36 -1 -36 -1 -49 54 -14 65 -17 124 -8 162 6 23 2 33
-22 55 -16 16 -56 64 -90 108 -88 116 -114 135 -152 109 -31 -22 -26 -57 17
-106 58 -68 112 -144 112 -160 0 -7 6 -22 14 -33 7 -11 16 -49 19 -85 4 -36 9
-80 13 -97 5 -29 4 -33 -15 -33 -36 0 -135 39 -151 59 -8 11 -49 31 -90 46
-183 64 -214 67 -226 19 -9 -36 15 -55 111 -89 44 -15 95 -36 113 -46 18 -11
39 -19 46 -19 8 0 19 -7 26 -15 7 -8 35 -27 61 -42 64 -34 107 -88 91 -114
-15 -24 -15 -127 -1 -184 14 -56 49 -90 83 -81 34 8 41 40 21 95 -8 24 -15 56
-15 71 0 37 15 40 220 47 l165 5 0 -59 1 -60 -91 -12 c-196 -27 -265 -49 -265
-86 0 -7 9 -24 20 -38 20 -25 21 -42 25 -609 3 -513 15 -844 30 -868 3 -5 0
-21 -5 -36 -17 -44 -15 -176 3 -210 20 -37 93 -107 134 -128 18 -9 54 -19 80
-23 27 -3 64 -14 83 -25 42 -22 71 -23 113 -4 18 8 50 17 72 20 22 3 121 18
220 32 99 14 214 32 255 40 71 14 569 170 750 236 93 33 214 96 260 134 23 20
33 23 49 15 28 -16 79 5 96 40 8 15 15 49 15 75 l0 46 33 -6 c17 -3 110 -15
205 -26 464 -55 781 -133 1212 -300 96 -37 193 -73 215 -80 91 -28 62 -36
-176 -49 -186 -11 -283 -34 -428 -102 -171 -80 -354 -227 -418 -336 -27 -47
-34 -114 -14 -150 15 -29 157 -98 251 -122 42 -11 74 -24 72 -31 -1 -6 -15
-29 -30 -52 -23 -36 -27 -52 -27 -112 0 -58 5 -79 26 -116 19 -33 28 -64 31
-115 7 -106 68 -208 180 -300 l48 -40 -3 -60 c-3 -81 15 -119 77 -161 l51 -34
-4 -108 c-4 -140 8 -181 74 -249 41 -41 63 -55 117 -72 68 -20 310 -51 558
-71 74 -6 136 -13 138 -14 2 -2 6 -28 9 -58 l5 -55 -63 -12 c-86 -16 -113 -31
-117 -63 -5 -45 22 -61 92 -53 33 3 69 11 79 17 22 11 36 -3 37 -37 0 -11 6
-31 13 -45 11 -21 11 -29 -1 -48 -12 -18 -14 -51 -10 -157 l5 -135 -36 -6
c-45 -8 -71 -30 -71 -60 0 -33 36 -55 81 -48 l36 6 12 -76 c14 -94 14 -123 1
-131 -17 -11 -11 -64 8 -74 17 -9 18 -15 8 -72 -16 -84 -27 -88 -164 -47 -59
17 -119 37 -133 44 -14 7 -67 51 -117 98 -102 95 -137 116 -249 148 -102 28
-281 31 -364 5 -120 -38 -191 -109 -226 -226 -40 -137 5 -249 160 -404 l98
-98 -23 -19 c-13 -11 -29 -19 -36 -20 -6 0 -94 36 -195 81 -100 44 -301 128
-447 186 -146 58 -355 142 -465 188 -110 46 -236 96 -280 111 -65 23 -89 38
-130 79 -55 57 -111 82 -207 92 -73 7 -105 -1 -139 -38 -27 -29 -30 -30 -51
-15 -12 9 -30 16 -40 16 -9 0 -90 -22 -180 -49 -182 -55 -529 -144 -743 -190
-77 -17 -189 -42 -250 -56 -60 -13 -207 -38 -325 -55 -410 -57 -505 -72 -575
-85 -131 -26 -119 -31 -126 55 -12 152 -29 190 -81 190 -18 0 -28 5 -28 15 0
23 45 113 95 190 50 78 54 94 25 120 -30 27 -64 12 -99 -45 -17 -27 -34 -50
-37 -50 -4 0 -4 27 -1 60 6 52 4 63 -13 80 -41 41 -76 12 -90 -76 -6 -33 -10
-60 -10 -61 0 -2 -8 -3 -19 -3 -16 0 -18 6 -13 45 7 70 -36 107 -84 70 -10 -8
-36 -15 -56 -15 -29 0 -41 -6 -54 -25 -16 -24 -15 -38 1 -77 11 -27 -7 -22
-58 17 -47 36 -84 44 -105 23 -26 -26 -13 -56 45 -105 41 -35 64 -65 85 -110
15 -35 37 -68 47 -75 14 -8 18 -19 15 -37 -4 -17 11 -66 40 -138 63 -158 102
-283 131 -425 17 -85 30 -128 43 -138 15 -12 52 -15 206 -13 171 1 190 3 210
21 19 18 43 20 331 26 396 9 593 31 815 93 171 47 501 148 600 184 63 22 126
44 140 49 63 21 166 63 178 72 9 8 20 5 40 -14 34 -32 82 -48 142 -48 53 0
157 -34 350 -115 74 -31 232 -95 350 -141 118 -47 379 -151 580 -231 471 -188
657 -253 688 -242 12 5 25 15 28 24 8 20 30 18 84 -8 33 -16 46 -29 48 -47 10
-94 37 -136 104 -165 116 -48 215 -40 417 32 142 51 232 62 344 45 117 -18
206 -81 223 -155 10 -45 82 -111 150 -137 124 -46 380 -7 488 75 45 34 45 34
130 29 75 -5 231 7 292 22 18 5 24 -1 33 -28 13 -40 58 -77 170 -141 46 -27
136 -83 200 -126 198 -133 392 -253 456 -282 33 -15 123 -67 200 -115 291
-181 374 -229 510 -292 83 -39 149 -76 162 -91 11 -15 44 -37 72 -51 28 -13
51 -29 51 -36 0 -6 -25 -38 -56 -70 -30 -33 -95 -111 -144 -174 -143 -186
-332 -405 -479 -555 -75 -77 -156 -170 -179 -206 -31 -49 -50 -68 -70 -72 -17
-3 -62 -41 -119 -100 -119 -121 -120 -127 -31 -265 155 -240 228 -326 281
-334 29 -4 34 -36 9 -54 -21 -14 -29 -49 -38 -163 -5 -55 -3 -67 12 -78 39
-29 84 -4 84 47 0 45 8 58 35 52 19 -3 27 -14 36 -46 16 -63 35 -86 69 -86 47
0 58 35 36 106 -10 32 -14 60 -9 65 5 5 31 -21 61 -61 44 -59 57 -70 82 -70
34 0 55 29 46 64 -3 12 -28 53 -57 90 -49 65 -50 68 -33 87 23 25 34 24 34 -5
0 -28 70 -96 98 -96 22 0 52 30 52 53 0 8 -12 29 -26 46 -14 17 -22 31 -17 32
4 0 30 0 56 -1 56 -2 77 12 77 50 0 37 -13 46 -87 60 -46 9 -64 18 -68 31 -8
25 -75 59 -116 59 -18 0 -40 -7 -49 -15 -15 -14 -16 -12 -12 15 5 33 -8 58
-71 133 -42 50 -43 77 -5 77 29 1 46 11 145 87 52 40 85 73 93 95 7 18 72 94
145 168 72 74 162 176 200 225 38 50 90 115 115 145 26 30 93 115 150 188 56
74 131 164 166 202 75 82 86 102 83 143 -2 18 3 57 10 87 19 81 2 159 -48 214
-64 71 -89 110 -97 151 -9 54 -50 123 -83 139 -14 7 -52 16 -85 19 -32 3 -65
12 -75 20 -9 8 -59 40 -113 71 -53 31 -170 108 -260 172 -185 132 -224 157
-433 279 -82 48 -236 143 -340 210 -208 133 -404 245 -448 254 -15 3 -27 11
-25 16 1 6 43 24 93 40 210 71 275 169 275 414 -1 101 -11 154 -46 228 -35 74
-139 160 -253 210 l-86 38 -155 0 c-146 0 -161 -2 -270 -34 -63 -18 -149 -46
-190 -61 -127 -48 -122 -48 -114 -5 10 55 -14 75 -88 75 -32 0 -58 4 -58 9 0
4 14 39 31 77 23 51 32 86 34 137 3 72 -8 97 -46 97 -15 0 -19 7 -19 39 l0 39
64 -5 c55 -5 66 -3 85 16 27 27 27 45 0 72 -17 17 -30 20 -63 16 -22 -3 -49
-8 -59 -12 -17 -7 -18 -1 -11 109 6 101 5 119 -10 135 -15 16 -15 19 -1 31 17
14 20 61 4 77 -6 6 -9 28 -7 49 3 34 8 40 52 63 63 33 75 63 41 97 -20 20 -32
24 -55 19 l-30 -7 -1 66 c-1 36 -2 71 -3 77 -1 5 25 21 57 34 75 30 129 66
183 121 23 24 50 44 61 44 32 0 120 58 157 103 55 67 86 142 86 209 l0 57 61
32 c71 38 104 75 119 131 16 59 14 156 -4 207 -9 24 -14 47 -11 49 3 3 42 16
86 29 112 32 233 80 263 104 14 11 31 37 37 58 10 34 9 45 -14 94 l-25 55 55
53 c30 30 61 68 69 86 18 42 18 144 -1 189 -19 45 -112 143 -197 206 -38 28
-68 54 -68 58 0 9 36 6 290 -25 107 -14 287 -32 400 -40 113 -9 215 -20 227
-25 12 -5 23 -19 25 -31 6 -39 49 -61 132 -67 75 -5 76 -5 76 -33 0 -30 10
-39 160 -152 47 -35 141 -106 210 -158 69 -53 161 -120 205 -149 44 -29 130
-90 190 -135 208 -154 783 -530 902 -591 38 -19 98 -45 133 -58 44 -15 69 -30
77 -46 6 -13 22 -32 35 -41 l22 -17 -59 -69 c-33 -37 -86 -99 -117 -138 -67
-82 -365 -386 -629 -641 -191 -185 -269 -283 -325 -411 -24 -53 -24 -53 -70
-53 -40 0 -51 -5 -78 -34 -19 -20 -59 -44 -104 -61 -41 -16 -80 -38 -88 -49
-10 -14 -37 -26 -89 -37 l-74 -15 -38 38 c-24 25 -49 40 -72 43 -45 7 -138 52
-145 71 -8 21 -70 18 -89 -4 -10 -11 -17 -35 -17 -60 0 -46 19 -64 67 -60 15
1 41 -7 57 -17 16 -10 47 -21 70 -25 28 -3 44 -12 51 -26 20 -41 38 -55 64
-52 17 2 27 -2 29 -13 2 -12 -7 -19 -35 -24 -20 -4 -50 -13 -65 -21 -15 -8
-37 -14 -50 -14 -13 0 -34 -7 -46 -16 -14 -10 -33 -14 -47 -10 -18 5 -45 -8
-114 -54 -50 -34 -97 -71 -106 -83 -18 -26 -20 -68 -3 -85 19 -19 66 -15 77 7
6 10 49 46 96 80 68 49 91 60 110 55 16 -4 35 0 50 10 13 9 32 16 42 16 10 0
60 10 111 21 73 17 98 19 118 11 37 -17 29 -37 -28 -73 -29 -19 -72 -51 -96
-71 -24 -21 -47 -38 -52 -38 -18 0 -70 -85 -70 -114 0 -17 -7 -39 -14 -49 -8
-10 -22 -47 -32 -83 -16 -61 -16 -65 1 -84 25 -28 73 -27 84 3 26 70 51 155
51 172 1 32 67 96 174 169 l99 68 36 -36 c31 -31 34 -39 23 -54 -24 -33 -34
-68 -43 -152 -7 -61 -15 -90 -29 -105 -24 -25 -25 -44 -5 -71 8 -10 15 -32 15
-49 0 -41 44 -131 69 -145 25 -13 57 1 66 29 3 10 -1 36 -9 57 -29 75 -36 117
-25 159 5 22 16 80 24 129 8 49 18 92 22 97 4 4 29 5 56 2 41 -5 48 -9 53 -32
14 -65 37 -122 67 -166 18 -27 39 -60 47 -75 8 -15 21 -33 27 -41 7 -8 27 -34
45 -58 70 -94 192 -150 218 -101 17 32 3 58 -55 94 -55 35 -97 84 -110 124 -4
13 -29 48 -55 77 -36 40 -54 71 -70 121 -11 37 -25 73 -31 80 -6 7 -7 28 -3
48 8 43 -7 66 -44 66 -14 0 -35 -9 -47 -20 -31 -29 -58 -16 -136 66 -35 37
-97 91 -136 121 -40 30 -73 57 -73 61 0 4 16 12 35 18 33 11 38 8 202 -100 92
-61 176 -114 186 -118 33 -14 66 9 91 65 21 49 28 55 61 61 20 4 48 18 62 32
13 13 31 24 39 24 30 0 55 22 80 72 35 68 68 120 125 193 25 33 83 114 127
181 87 131 144 199 287 339 100 98 176 184 303 342 92 114 262 351 262 364 0
5 12 11 28 15 40 9 110 52 122 74 5 10 10 31 10 45 0 42 -59 142 -121 208 -48
51 -57 66 -62 107 -3 27 -12 58 -19 69 -19 31 -69 51 -127 51 -38 0 -60 7 -93
29 -24 15 -119 70 -213 121 -213 116 -361 204 -740 440 -307 191 -627 384
-770 462 l-80 44 -5 56 c-5 60 -26 96 -72 131 -39 29 -128 28 -167 -1 l-30
-22 -83 20 c-94 22 -375 62 -553 80 -277 27 -497 59 -815 120 -122 23 -489 71
-705 92 -26 3 -30 7 -31 33 0 17 -4 37 -8 46 -5 13 0 18 21 24 40 10 53 23 53
55 0 35 -19 50 -70 57 -32 5 -44 11 -51 31 -5 14 -7 27 -5 30 3 2 40 -1 83 -7
116 -17 361 -41 420 -41 47 0 55 3 75 30 20 28 26 30 88 30 112 0 138 36 152
205 4 60 13 148 18 195 17 143 24 384 11 407 -9 18 -7 23 14 37 42 28 56 70
65 193 4 63 9 116 11 118 2 2 33 14 69 28 73 27 90 37 206 120 105 74 194 169
233 249 42 86 98 296 112 423 14 121 2 239 -38 399 -61 241 -171 428 -359 606
-188 179 -340 250 -651 305 -117 20 -682 19 -858 -1z m930 -118 c226 -53 334
-105 480 -233 67 -58 170 -179 221 -258 72 -114 131 -271 160 -430 19 -104 14
-303 -10 -395 -38 -146 -70 -239 -96 -280 -71 -111 -270 -262 -394 -300 -42
-13 -83 -32 -92 -41 -11 -12 -19 -56 -27 -154 -12 -159 -3 -147 -140 -169
-105 -16 -188 -9 -412 34 -247 48 -314 59 -450 71 -71 6 -193 22 -270 34 -77
13 -189 27 -250 30 -61 4 -135 15 -166 26 -30 10 -116 32 -190 50 -74 17 -152
41 -173 53 -35 18 -41 27 -52 76 -17 75 -39 258 -32 265 3 4 41 -1 84 -10 86
-18 122 -15 247 16 200 50 321 146 372 296 25 73 37 223 25 319 -14 116 -26
158 -57 206 -34 51 -90 83 -188 108 -93 24 -174 25 -241 5 -65 -20 -64 -20
-64 18 0 101 77 274 169 383 74 87 141 139 249 193 121 61 217 83 492 115 19
2 181 3 360 2 317 -2 328 -3 445 -30z m-1417 -792 c76 -20 100 -37 122 -87 24
-56 37 -192 27 -297 -16 -173 -95 -268 -274 -326 -71 -23 -106 -29 -180 -29
-50 0 -95 3 -98 7 -4 4 7 28 24 54 17 26 40 72 51 102 26 70 60 265 60 345 0
55 -5 83 -25 174 -7 28 26 51 98 69 56 14 106 11 195 -12z m-3963 -566 c2 -7
5 -22 7 -33 3 -22 7 -21 -338 -38 l-110 -5 -11 29 c-8 20 -8 31 -1 35 35 22
446 32 453 12z m-89 -565 c-4 -93 -16 -249 -26 -348 -20 -198 -35 -390 -50
-650 -5 -93 -15 -190 -22 -214 -12 -40 -11 -44 10 -61 21 -18 25 -18 67 -2 56
20 67 11 25 -24 -21 -18 -30 -33 -27 -45 3 -10 -4 -36 -15 -56 -24 -47 -17
-127 14 -160 13 -14 18 -28 13 -42 -13 -43 -92 -15 -145 52 -31 39 -28 127 5
163 30 33 31 51 4 80 -18 19 -21 41 -29 200 -5 99 -10 420 -10 714 l-1 535 58
11 c32 7 75 12 97 13 l39 1 -7 -167z m3743 -177 c125 -33 125 -34 113 -49 -6
-7 -17 -37 -25 -67 l-14 -55 -44 3 c-56 3 -179 41 -186 57 -2 7 3 39 11 71 8
31 12 62 9 67 -7 11 -3 10 136 -27z m271 -72 c25 -9 100 -19 167 -23 67 -4
125 -9 127 -12 3 -2 0 -35 -7 -72 -11 -65 -12 -67 -37 -63 -14 3 -92 15 -175
26 -82 12 -153 25 -157 29 -11 10 14 131 26 131 6 0 31 -7 56 -16z m620 -78
l125 -11 -4 -80 c-1 -44 -5 -82 -7 -84 -2 -3 -82 9 -177 25 l-172 30 1 56 c2
86 6 92 62 83 26 -4 103 -12 172 -19z m365 -51 c55 -10 103 -20 107 -24 4 -3
2 -37 -5 -74 l-11 -69 -76 6 c-155 13 -172 17 -164 35 3 9 9 41 11 71 6 70 10
83 26 77 6 -2 57 -12 112 -22z m358 -66 c26 -5 63 -9 81 -9 33 0 33 -1 40 -57
4 -32 2 -61 -3 -66 -8 -8 -121 0 -248 19 -32 5 -32 5 -26 52 9 74 17 83 66 76
23 -3 64 -10 90 -15z m281 -126 c-3 -76 -12 -197 -20 -270 -8 -73 -14 -159
-14 -192 0 -33 -4 -71 -10 -85 -9 -24 -14 -26 -73 -26 l-63 0 -12 48 c-7 26
-22 54 -33 62 -19 15 -19 16 5 86 59 175 54 185 -134 219 -228 43 -434 85
-439 92 -9 9 187 -5 399 -28 102 -11 208 -23 235 -25 34 -4 56 -1 68 8 23 17
36 79 37 169 0 73 3 79 36 79 l23 0 -5 -137z m-1896 -39 c41 -5 43 -7 37 -31
-3 -14 -9 -38 -12 -54 -7 -35 -18 -36 -168 -14 -55 8 -103 15 -107 15 -9 0
-11 84 -2 93 7 6 176 0 252 -9z m342 -24 c63 -6 129 -13 147 -16 l31 -6 -5
-56 c-3 -32 -9 -61 -14 -66 -5 -6 -55 -3 -126 8 -65 10 -147 21 -183 24 -43 5
-65 11 -64 20 1 6 2 32 3 57 l1 45 48 0 c26 0 99 -5 162 -10z m468 -65 c86
-14 164 -28 172 -30 14 -4 14 -13 -5 -71 l-20 -65 -45 6 c-25 3 -103 18 -175
33 -107 23 -130 31 -129 45 0 9 1 37 2 62 2 55 -9 53 200 20z m580 -110 c5 -4
-59 -125 -66 -125 -28 0 -247 41 -253 47 -6 7 4 80 16 129 3 8 49 2 152 -18
81 -17 149 -31 151 -33z m-1608 5 c29 -6 159 -21 289 -34 264 -28 435 -52 689
-99 l172 -32 18 -35 c21 -44 46 -49 80 -17 l27 25 210 -34 c220 -35 290 -41
300 -24 13 20 23 9 29 -32 4 -24 9 -58 12 -75 l6 -33 -45 0 c-48 0 -312 27
-337 35 -8 2 -115 18 -237 34 -123 17 -294 46 -380 65 -87 19 -210 42 -273 51
-325 46 -543 94 -621 137 -36 20 -64 60 -52 72 9 9 53 7 113 -4z m1793 -36
c21 -7 22 -26 0 -82 l-17 -44 -48 5 c-27 4 -53 9 -58 12 -5 3 0 24 10 48 11
23 20 50 20 61 0 16 5 17 38 12 20 -4 45 -9 55 -12z m-3466 -41 c11 -14 10
-20 -6 -37 -10 -12 -24 -48 -31 -81 -6 -33 -20 -72 -31 -87 -10 -15 -19 -42
-19 -60 -1 -50 -30 -78 -71 -72 -28 5 -53 -4 -139 -50 -73 -38 -171 -76 -325
-126 -121 -39 -258 -85 -305 -101 -126 -46 -249 -74 -421 -98 -182 -26 -328
-50 -389 -66 -25 -6 -25 -6 -27 68 -1 50 -6 83 -17 99 -17 27 -13 38 16 38 13
0 18 -8 18 -28 0 -41 17 -52 78 -52 44 0 73 9 165 54 62 29 166 75 232 100 66
26 145 58 175 71 97 41 410 156 505 186 51 16 139 51 196 78 89 43 108 56 129
92 37 61 124 102 200 94 34 -3 60 -12 67 -22z m688 -162 c160 -46 333 -102
590 -191 304 -106 561 -180 673 -195 40 -5 58 -3 77 9 26 17 35 7 11 -13 -8
-7 -17 -28 -21 -47 -6 -34 -8 -35 -38 -28 -109 23 -330 93 -484 153 -431 167
-795 256 -1248 306 -77 9 -148 18 -157 21 -29 9 -22 44 11 55 15 6 33 20 39
33 l10 23 199 -43 c109 -23 261 -61 338 -83z m1695 -96 c188 -41 377 -75 473
-86 59 -7 107 -17 107 -21 0 -5 -5 -17 -12 -27 -9 -15 -9 -32 1 -76 8 -34 9
-61 4 -66 -5 -5 -43 -5 -94 0 -185 20 -302 30 -484 41 -104 6 -198 13 -207 16
-23 7 -23 43 -2 113 8 29 16 71 16 93 l0 40 67 -6 c36 -4 95 -13 131 -21z m93
-345 c98 -5 231 -16 295 -24 64 -9 147 -18 183 -21 l66 -6 6 -52 c4 -29 9 -69
13 -89 l7 -38 -39 0 c-22 0 -97 5 -169 10 -402 30 -549 40 -627 40 -50 0 -90
4 -93 11 -4 5 -1 24 5 40 10 23 10 36 1 55 -7 15 -9 41 -5 61 l7 35 86 -6 c47
-4 166 -11 264 -16z m-489 -170 c16 0 29 -93 20 -138 -6 -29 -10 -31 -63 -38
-77 -9 -98 -19 -115 -52 -14 -27 -20 -30 -93 -36 -217 -20 -458 -124 -650
-282 l-32 -26 -101 26 c-115 28 -207 68 -216 91 -22 56 188 238 378 328 139
66 221 85 407 97 213 12 414 30 420 36 3 3 11 2 19 -1 7 -3 19 -5 26 -5z
m1843 -76 c338 -62 620 -103 823 -119 175 -14 537 -71 555 -87 6 -5 4 -14 -6
-23 -13 -13 -38 -13 -219 0 -221 15 -316 25 -565 54 -88 11 -225 25 -305 31
-152 12 -157 13 -314 79 -55 23 -137 55 -183 70 -46 16 -87 32 -91 36 -11 12
107 -4 305 -41z m-482 -27 c39 -12 38 -12 -49 -15 -81 -3 -92 -1 -110 19 l-21
21 70 -6 c39 -4 88 -12 110 -19z m-835 -27 c348 -23 576 -43 583 -49 4 -5 2
-41 -5 -82 -13 -69 -16 -74 -41 -77 -14 -2 -140 9 -279 24 -139 15 -342 30
-450 33 -108 3 -200 9 -204 13 -8 9 -6 137 2 150 6 9 137 5 394 -12z m1085
-119 c205 -32 331 -58 367 -77 78 -40 268 -178 327 -237 55 -56 64 -71 68
-110 6 -54 -17 -99 -73 -142 l-35 -27 -47 30 c-90 58 -256 135 -456 212 -230
89 -329 122 -438 144 -55 11 -84 23 -103 41 -31 32 -33 50 -2 40 50 -17 123
-17 140 0 41 40 8 78 -83 95 -62 12 -73 20 -64 45 7 16 18 17 138 12 72 -3
190 -15 261 -26z m1837 -18 c22 -20 23 -51 2 -82 -27 -39 -7 -63 98 -114 123
-60 397 -223 813 -482 363 -227 562 -345 795 -472 104 -57 149 -87 158 -106
19 -39 39 -46 110 -36 70 10 82 7 82 -20 0 -11 -16 -25 -42 -37 -42 -19 -43
-20 -43 -68 0 -44 -3 -51 -30 -68 -36 -21 -59 -23 -74 -5 -6 8 -43 26 -83 41
-117 44 -234 103 -352 179 -260 166 -590 387 -701 470 -66 50 -166 121 -222
159 -57 37 -176 125 -265 194 -89 69 -187 143 -219 165 -56 38 -57 39 -52 77
6 48 -4 56 -72 57 -43 0 -50 3 -53 21 -2 16 5 25 28 34 38 16 60 46 60 82 0
22 5 28 22 28 12 0 30 -7 40 -17z m-3434 -125 c-3 -51 -4 -53 -33 -56 -47 -6
-68 -30 -62 -74 l5 -36 -87 -6 c-47 -4 -138 -16 -202 -27 -107 -20 -126 -21
-255 -9 -76 6 -141 14 -144 17 -20 19 229 151 354 187 77 23 166 35 366 49 25
2 49 4 53 5 4 1 7 -22 5 -50z m582 -3 c63 -8 180 -21 260 -30 252 -28 243 -26
251 -60 3 -17 8 -34 10 -40 1 -5 0 -47 -5 -92 l-7 -83 -32 0 c-45 1 -200 16
-342 34 -144 18 -386 36 -487 36 -40 0 -78 4 -83 8 -26 18 -57 214 -40 243 10
15 303 6 475 -16z m870 -206 c237 -78 650 -254 650 -278 0 -18 -53 -24 -290
-28 l-245 -5 -70 35 c-92 46 -144 62 -239 77 -70 10 -83 10 -117 -6 -22 -9
-42 -14 -46 -11 -11 11 19 37 43 37 28 0 54 35 54 71 0 15 3 34 6 43 5 14 9
14 36 0 68 -35 141 14 104 71 -15 24 -15 25 1 25 10 0 61 -14 113 -31z m-2272
-85 c28 -4 52 -10 52 -13 0 -3 -24 -19 -53 -34 -30 -15 -77 -51 -106 -79 -37
-36 -55 -48 -63 -40 -16 16 -3 52 42 115 43 60 44 60 128 51z m542 -44 c102
-6 209 -13 238 -16 l52 -5 0 -49 0 -48 -46 -7 c-55 -8 -287 -91 -363 -129 -30
-16 -78 -44 -106 -63 l-52 -34 -104 21 c-107 21 -249 79 -249 101 0 22 49 78
97 111 53 36 156 80 253 108 80 23 58 22 280 10z m810 -43 c177 3 212 2 295
-10 l80 -12 -3 -37 c-4 -44 5 -50 109 -74 41 -9 80 -21 87 -26 7 -6 12 -33 12
-62 0 -28 5 -80 10 -116 5 -35 7 -66 5 -68 -2 -2 -57 8 -122 22 -157 33 -412
78 -663 116 -112 17 -207 33 -211 36 -10 6 -22 200 -14 225 7 21 9 21 159 13
83 -5 198 -8 256 -7z m1709 -223 c41 -52 30 -61 -144 -117 -184 -59 -170 -60
-265 20 -59 49 -77 69 -64 70 11 1 87 7 169 13 83 6 175 16 205 24 76 19 76
19 99 -10z m-2251 -11 c23 -4 32 -10 32 -25 0 -11 8 -33 17 -49 30 -51 17 -54
-199 -40 -105 7 -199 16 -207 20 -19 11 20 32 144 78 91 33 107 35 213 16z
m1511 -8 c25 -3 71 -22 103 -41 78 -48 160 -113 154 -123 -3 -5 -57 -11 -121
-15 l-116 -7 -35 30 c-19 17 -63 45 -96 62 -62 31 -62 31 -37 44 14 8 30 25
37 39 9 21 17 25 39 21 15 -2 48 -7 72 -10z m-2367 -94 c26 -11 79 -29 117
-38 39 -9 71 -21 71 -25 0 -16 -85 -117 -99 -117 -20 -1 -108 93 -132 141 -19
37 -25 73 -11 65 4 -3 28 -14 54 -26z m2148 -71 c11 -7 3 -10 -28 -10 -26 0
-41 4 -37 10 8 13 45 13 65 0z m-1713 -21 c43 -6 164 -16 268 -22 187 -12 190
-12 193 -35 6 -39 -4 -54 -27 -40 -27 16 -91 -4 -135 -42 -18 -17 -43 -30 -54
-30 -10 0 -63 -11 -116 -24 -93 -24 -100 -24 -178 -11 -116 21 -188 43 -188
59 0 27 124 156 150 156 5 0 44 -5 87 -11z m1307 -34 c76 -14 148 -32 159 -39
12 -8 55 -16 96 -19 40 -3 76 -8 78 -11 3 -3 -6 -15 -21 -28 -21 -19 -29 -40
-41 -112 -19 -114 -19 -122 6 -147 14 -14 28 -19 47 -15 15 3 34 2 42 -4 19
-12 18 -12 -110 -10 -111 2 -140 10 -140 39 0 10 -6 24 -13 30 -17 13 -429 77
-596 91 -134 12 -145 15 -137 36 9 24 -27 55 -72 61 l-43 6 3 56 3 56 215 -2
c118 -1 236 -4 263 -8 41 -5 50 -3 70 19 12 13 29 24 38 25 9 1 78 -10 153
-24z m1006 -91 c21 -49 26 -127 10 -168 -10 -28 -83 -81 -98 -72 -5 3 -21 29
-36 58 -15 29 -51 83 -81 121 -30 37 -55 71 -55 76 0 9 51 17 150 24 25 2 55
4 68 5 18 2 27 -7 42 -44z m-347 -51 c86 -104 147 -192 147 -213 0 -23 -23
-28 -150 -36 l-105 -6 -28 30 -28 30 25 25 c32 32 32 37 4 72 -20 25 -25 27
-84 23 l-63 -4 6 56 c4 44 2 58 -11 69 -9 7 -16 17 -16 22 0 5 54 9 119 9
l119 0 65 -77z m-2150 -105 c26 -6 47 -14 47 -18 0 -3 -14 -19 -30 -35 l-31
-30 -37 20 c-30 16 -38 27 -40 54 -3 31 -2 33 20 27 13 -4 44 -12 71 -18z
m513 -64 l132 -7 5 -51 c3 -28 3 -53 1 -55 -4 -4 -501 48 -520 56 -23 9 -17
18 34 47 44 25 53 27 132 22 47 -3 144 -9 216 -12z m497 -23 c13 -5 -19 -10
-84 -14 -57 -4 -118 -9 -135 -13 -24 -4 -33 -2 -38 11 -13 34 3 38 122 30 63
-3 124 -10 135 -14z m370 -132 c64 -6 134 -17 155 -26 22 -9 81 -18 145 -21
59 -3 107 -9 107 -13 0 -17 -31 -213 -34 -216 -5 -5 -155 16 -230 33 -75 16
-101 13 -117 -17 -8 -16 -7 -26 5 -44 17 -26 48 -36 164 -55 40 -7 72 -14 70
-16 -3 -2 -114 1 -249 6 -134 6 -304 9 -378 8 l-133 -3 -44 110 c-40 102 -51
145 -39 156 2 3 46 -1 97 -8 109 -16 135 -12 144 23 8 31 -17 61 -57 68 -16 3
-44 9 -61 13 l-33 7 30 7 c36 9 291 2 458 -12z m-908 -49 c110 -12 203 -25
206 -28 4 -4 9 -23 13 -43 6 -36 6 -37 -49 -68 -60 -34 -82 -69 -65 -100 11
-22 32 -31 70 -31 28 0 60 22 60 41 0 5 6 9 14 9 14 0 51 -78 41 -88 -10 -11
-457 35 -578 59 -74 15 -134 65 -147 124 -12 52 -12 127 -1 157 l9 24 113 -17
c63 -10 204 -27 314 -39z m5726 3 c54 -58 93 -119 84 -133 -3 -5 -24 -15 -46
-21 -47 -15 -67 -37 -176 -195 -122 -177 -315 -408 -503 -599 -132 -135 -182
-195 -245 -290 -43 -66 -101 -149 -129 -185 -58 -75 -166 -248 -166 -267 0
-21 -58 -15 -90 9 -17 12 -30 30 -30 39 0 36 -28 49 -105 49 -75 0 -105 6
-105 21 0 4 22 5 50 2 60 -7 76 4 91 61 36 137 128 254 408 522 249 239 482
479 584 604 34 41 94 111 134 155 45 49 73 88 73 102 0 15 10 28 30 38 37 19
70 70 70 108 0 40 21 34 71 -20z m-3873 8 c8 -52 -97 -201 -141 -201 -9 0 -20
29 -31 83 -10 45 -20 92 -23 105 -5 20 -2 22 43 23 27 0 67 4 89 8 52 11 59 9
63 -18z m-315 -18 c18 -21 45 -111 49 -168 3 -35 0 -40 -19 -43 -18 -3 -23 2
-23 17 0 34 -41 54 -94 46 l-46 -7 0 33 c1 55 17 121 31 130 24 15 85 10 102
-8z m-77 -348 c-20 -15 -83 -31 -92 -23 -2 3 -2 13 2 22 5 12 19 16 58 16 47
-1 49 -2 32 -15z m-545 -94 c20 -34 53 -41 244 -50 l130 -6 6 -30 c9 -40 10
-230 3 -277 l-7 -38 -61 0 c-33 0 -144 14 -246 31 -163 26 -318 48 -458 65
-41 5 -43 7 -37 33 3 15 -1 56 -9 91 -19 84 -30 186 -21 199 4 7 82 11 223 11
l217 0 16 -29z m-56 -456 c116 -19 270 -41 343 -47 127 -11 133 -13 128 -32
-3 -12 -10 -84 -16 -161 -5 -77 -12 -159 -16 -182 l-5 -43 -374 0 c-346 0
-375 1 -384 18 -17 33 -56 473 -43 487 12 12 148 -3 367 -40z m-1225 -465 c47
-6 118 -22 158 -36 64 -23 85 -38 176 -123 98 -93 106 -98 189 -125 48 -15 87
-31 87 -35 0 -18 61 -34 105 -28 24 4 46 3 48 -1 3 -4 0 -33 -6 -65 -8 -43 -8
-67 0 -88 10 -24 8 -38 -8 -74 -20 -44 -21 -45 -69 -45 -27 0 -61 -5 -75 -12
-51 -23 -42 -93 15 -123 35 -18 36 -21 10 -60 -41 -62 -12 -133 44 -107 44 21
162 248 174 334 4 35 7 38 36 38 76 0 266 -32 357 -60 54 -17 138 -35 186 -41
48 -6 89 -12 91 -14 2 -2 -1 -12 -7 -22 -5 -11 -13 -59 -17 -109 l-7 -89 -76
-72 -76 -72 -55 5 c-232 22 -371 48 -474 91 -56 22 -70 25 -91 15 -22 -10 -26
-18 -23 -45 3 -27 10 -35 50 -54 118 -57 398 -109 616 -115 88 -3 95 -1 113
20 12 15 16 33 13 50 -4 23 4 36 50 80 l54 53 41 -11 c62 -16 48 -40 -23 -40
-37 0 -56 -15 -56 -44 0 -35 29 -56 78 -56 120 0 222 140 145 199 -30 24 -50
30 -126 40 l-52 6 3 67 c3 58 1 69 -18 88 l-22 22 24 22 c14 11 32 33 42 49
16 26 18 27 114 27 118 0 215 21 414 89 80 27 183 55 228 62 183 26 329 -12
447 -116 81 -73 96 -116 96 -275 -1 -204 -42 -253 -264 -315 -52 -14 -155 -46
-229 -71 -74 -25 -184 -60 -243 -78 -59 -19 -126 -46 -148 -62 -22 -15 -83
-74 -136 -131 -94 -101 -97 -103 -177 -129 -194 -63 -340 -35 -387 74 -65 152
-209 219 -449 209 -104 -4 -125 -8 -225 -45 -135 -50 -183 -62 -260 -61 -75 0
-126 23 -136 62 -4 15 -8 78 -8 139 -1 125 -8 157 -58 278 -65 153 -112 212
-263 327 -148 112 -247 209 -282 275 -44 85 -18 217 53 270 46 34 77 44 199
67 3 1 44 -4 90 -9z m-1907 -67 c23 -10 37 -22 37 -33 0 -35 36 -60 140 -96
58 -19 224 -84 370 -144 146 -59 364 -147 485 -195 121 -49 252 -102 290 -120
74 -34 299 -129 326 -138 12 -4 18 -23 21 -74 7 -86 38 -169 89 -233 22 -28
35 -50 30 -50 -22 0 -277 96 -631 238 -206 82 -413 164 -460 182 -47 18 -182
73 -300 123 -302 125 -394 156 -456 154 -90 -3 -118 46 -69 119 31 45 31 49 1
79 -15 15 -22 32 -19 43 2 11 -2 33 -11 50 -21 40 -20 50 4 90 20 32 22 33 68
26 26 -4 64 -13 85 -21z m-2699 -15 c-4 -18 -7 -45 -6 -59 2 -25 0 -26 -65
-32 -113 -11 -110 -12 -116 31 -3 20 -8 47 -12 59 -8 26 5 30 123 32 l84 1 -8
-32z m2416 -20 c0 -46 23 -103 52 -130 l30 -28 -31 -42 c-18 -25 -31 -54 -31
-72 -1 -30 -4 -32 -93 -62 -50 -18 -150 -53 -222 -78 -162 -58 -532 -170 -685
-207 -180 -44 -321 -58 -717 -70 -276 -8 -373 -14 -389 -25 -21 -13 -22 -11
-39 54 -9 36 -29 100 -45 141 -16 41 -28 76 -27 77 9 10 343 66 502 84 236 28
450 65 640 110 66 16 147 34 180 40 115 22 571 141 710 184 77 25 146 45 153
45 6 1 12 -9 12 -21z m3900 -11 c34 -5 30 -18 -42 -161 -63 -125 -101 -190
-116 -200 -6 -3 -13 -22 -16 -41 -4 -19 -12 -35 -19 -36 -40 -3 -95 4 -112 16
-30 19 -315 73 -427 81 -53 4 -101 10 -107 13 -14 9 30 319 46 329 12 7 750 6
793 -1z m-6278 -163 c3 -3 -3 -27 -13 -55 -32 -83 -22 -119 33 -119 25 0 27
-3 22 -28 -4 -21 5 -50 34 -108 40 -80 82 -200 82 -235 0 -17 -8 -19 -75 -19
-85 0 -73 -14 -100 120 -19 91 -66 248 -106 349 -17 41 -26 77 -22 82 15 14
133 25 145 13z m9094 -29 c16 -8 48 -15 72 -15 39 0 43 -2 49 -30 3 -17 16
-40 29 -53 25 -23 30 -37 14 -37 -9 0 -205 123 -224 141 -16 15 29 10 60 -6z
m-4546 -465 c44 -42 68 -78 103 -150 72 -151 95 -250 59 -250 -29 0 -178 97
-212 138 -45 55 -70 145 -70 259 l0 94 31 -18 c17 -10 57 -43 89 -73z m2540
-519 c0 -24 -102 -126 -152 -152 -21 -10 -66 -26 -100 -34 -66 -16 -238 -21
-238 -7 0 8 48 56 81 80 9 7 67 27 130 46 63 19 143 46 179 60 80 31 100 32
100 7z m144 -73 c62 -19 197 -95 409 -232 106 -68 270 -169 366 -226 190 -111
257 -154 463 -301 75 -54 156 -108 180 -120 23 -12 76 -44 116 -70 62 -42 79
-49 122 -49 37 0 55 -5 70 -20 29 -29 25 -44 -15 -59 -39 -14 -56 -51 -36 -82
12 -20 15 -87 5 -113 -16 -40 -165 2 -208 59 -14 18 -36 37 -48 41 -13 3 -79
32 -148 64 -134 62 -261 134 -485 276 -77 48 -183 110 -235 137 -122 63 -123
64 -391 238 -124 81 -261 167 -304 191 -113 62 -113 69 0 184 49 50 92 92 94
93 2 0 22 -5 45 -11z m1902 -1337 c5 -34 2 -56 -16 -98 -12 -29 -20 -63 -17
-74 4 -15 -10 -38 -53 -85 -33 -36 -90 -104 -127 -152 -263 -339 -393 -493
-535 -636 -87 -88 -158 -165 -158 -172 0 -12 -129 -124 -143 -124 -4 0 -19 19
-34 43 -15 23 -49 65 -75 93 l-49 51 50 74 c27 41 99 122 159 181 130 126 344
377 534 625 26 34 59 67 75 75 18 8 40 35 60 73 l32 60 58 7 c90 12 132 68
133 177 l0 35 49 -55 c38 -41 51 -65 57 -98z m-1303 -1263 c24 -58 106 -178
165 -241 32 -34 71 -80 87 -102 16 -22 38 -47 48 -56 18 -15 17 -17 -29 -51
-82 -59 -114 -71 -114 -43 0 9 -24 39 -52 68 -41 41 -184 241 -232 325 -5 7
14 35 50 72 31 33 59 60 60 60 2 0 10 -15 17 -32z m307 -577 c0 -11 -65 -61
-79 -61 -27 0 -17 21 22 44 45 27 57 31 57 17z"/>
<path d="M10974 11191 c-58 -27 -121 -85 -165 -154 -53 -81 -72 -175 -67 -320
4 -133 23 -177 99 -232 104 -75 176 -93 297 -75 197 29 290 129 308 331 12
127 -34 314 -92 379 -57 63 -111 83 -233 87 -89 3 -113 1 -147 -16z m252 -104
c51 -26 73 -60 94 -141 32 -125 34 -167 15 -246 -22 -90 -48 -128 -110 -159
-43 -23 -62 -26 -145 -26 -91 0 -97 1 -148 34 -82 52 -87 66 -85 198 1 62 7
132 14 155 16 63 73 142 127 178 45 30 50 31 128 27 44 -3 93 -11 110 -20z"/>
<path d="M10344 10348 c-94 -101 -105 -123 -77 -157 32 -39 266 -67 297 -35
37 36 -1 145 -59 173 -16 8 -41 25 -55 38 -36 33 -60 29 -106 -19z m106 -90
c0 -5 -9 -8 -20 -8 -23 0 -26 10 -8 28 9 9 14 9 20 -1 4 -6 8 -15 8 -19z"/>
<path d="M9405 5030 c-56 -22 -59 -94 -9 -196 24 -48 37 -63 74 -81 111 -57
240 -4 240 98 0 26 7 46 20 59 50 50 8 82 -140 109 -123 23 -153 24 -185 11z
m155 -111 c35 -5 66 -12 68 -14 7 -7 -28 -63 -43 -69 -35 -13 -76 6 -95 45
-30 57 -33 55 70 38z"/>
<path d="M11543 4630 c-99 -25 -149 -55 -173 -105 -39 -81 -17 -130 78 -177
150 -74 314 -15 336 121 8 50 0 70 -32 78 -35 8 -54 -7 -72 -58 -18 -50 -46
-69 -103 -69 -42 0 -100 21 -112 41 -15 23 38 54 126 73 90 19 119 36 119 71
0 49 -44 56 -167 25z"/>
<path d="M12903 5279 c-7 -7 -13 -26 -13 -42 0 -22 7 -31 34 -42 64 -27 109
-29 130 -7 21 25 14 56 -17 77 -32 20 -119 30 -134 14z"/>
</g>
</svg>
